<?xml version="1.0" standalone="no"?>
<!DOCTYPE svg PUBLIC "-//W3C//DTD SVG 20010904//EN"
 "http://www.w3.org/TR/2001/REC-SVG-20010904/DTD/svg10.dtd">
<svg version="1.0" xmlns="http://www.w3.org/2000/svg"
 width="225.000000pt" height="225.000000pt" viewBox="0 0 225.000000 225.000000"
 preserveAspectRatio="xMidYMid meet">
<metadata>
Created by potrace 1.16, written by Peter Selinger 2001-2019
</metadata>
<g transform="translate(0.000000,225.000000) scale(0.100000,-0.100000)"
fill="#000000" stroke="none">
<path d="M927 1965 c-21 -7 -63 -30 -94 -50 -30 -20 -72 -39 -92 -42 -83 -11
-111 -34 -111 -92 0 -18 -13 -49 -31 -75 -81 -114 -26 -243 126 -302 l44 -16
-32 -22 c-40 -27 -58 -88 -33 -115 9 -10 16 -29 16 -43 0 -44 31 -122 60 -148
17 -15 30 -40 34 -65 4 -22 19 -61 33 -86 l25 -47 -36 -36 c-20 -20 -41 -36
-47 -36 -5 0 -15 -13 -20 -29 -7 -19 -16 -28 -24 -25 -8 3 -78 -22 -157 -55
-79 -34 -153 -61 -164 -61 -28 0 -54 -31 -54 -65 0 -90 150 -194 366 -252 97
-27 105 -27 389 -27 284 0 292 0 390 27 229 62 392 182 369 272 -7 27 -31 45
-61 45 -10 0 -81 27 -157 61 -77 33 -147 58 -157 56 -12 -3 -19 3 -23 19 -4
14 -18 30 -31 36 -14 6 -27 20 -31 30 -3 11 -16 24 -29 30 l-24 11 24 36 c13
20 29 59 36 86 8 30 23 60 39 75 26 24 60 114 60 158 0 11 7 25 15 32 18 15
20 41 4 57 -8 8 2 19 34 42 79 54 81 116 7 204 -27 33 -46 72 -61 120 -44 150
-91 197 -197 197 -53 0 -75 6 -140 39 -80 40 -171 71 -206 71 -12 -1 -38 -7
-59 -15z m231 -79 c74 -35 112 -47 139 -45 68 4 82 -1 121 -36 39 -34 54 -63
92 -166 11 -31 36 -76 55 -101 46 -59 53 -95 25 -131 -22 -28 -72 -47 -102
-39 -14 3 -18 15 -18 51 l0 47 36 -4 37 -4 -60 54 c-47 43 -72 58 -123 72 -83
23 -131 48 -180 93 l-40 35 0 -25 c0 -106 -191 -45 -272 88 -10 16 -18 23 -18
15 1 -28 38 -98 74 -138 20 -21 36 -43 36 -47 0 -13 -94 6 -150 31 -30 14 -65
35 -77 46 -13 12 -23 18 -23 14 0 -22 36 -70 78 -101 l47 -37 -65 4 c-36 2
-74 8 -85 13 -20 8 -20 8 0 -14 11 -13 33 -30 50 -38 37 -19 45 -30 45 -65 0
-33 -10 -34 -65 -8 -102 50 -141 140 -96 228 11 22 25 43 31 47 5 3 10 21 10
39 0 42 24 64 90 81 29 8 69 26 91 40 99 70 170 70 317 1z m119 -327 c43 -6
97 -19 121 -29 l42 -19 0 -60 c0 -34 -2 -61 -5 -61 -3 0 -34 10 -68 22 -56 20
-81 23 -242 22 -160 0 -187 -2 -242 -22 -34 -12 -65 -22 -68 -22 -11 0 -5 118
8 127 54 44 288 65 454 42z m63 -195 l55 -19 7 -125 c9 -146 3 -208 -24 -272
-20 -47 -71 -107 -54 -63 18 46 16 57 -5 20 -74 -138 -212 -184 -305 -102 -20
17 -51 54 -70 81 -32 48 -46 50 -24 3 7 -14 0 -10 -18 11 -55 62 -69 154 -55
351 7 105 6 104 106 127 89 20 314 13 387 -12z m-414 -579 c25 -19 56 -38 70
-41 19 -5 24 -13 24 -36 0 -29 -2 -30 -32 -25 l-33 6 38 -20 c22 -11 40 -19
41 -17 1 2 6 17 12 33 9 29 12 30 78 33 74 3 86 -3 86 -45 0 -27 1 -27 45 -9
42 18 45 28 7 20 -27 -6 -29 -4 -24 24 3 22 12 34 35 43 17 7 46 26 64 42 34
30 53 29 53 -3 0 -11 11 -22 30 -29 17 -5 30 -17 30 -25 0 -29 -114 -91 -202
-110 -36 -8 -36 -34 -2 -75 33 -40 52 -40 24 -1 l-21 30 21 0 c12 0 44 -25 80
-62 l60 -63 -45 -3 c-86 -6 -168 32 -213 98 -21 32 -22 36 -7 45 47 28 45 30
-19 30 -65 0 -75 -8 -29 -26 24 -9 24 -9 6 -40 -41 -70 -126 -122 -220 -135
-88 -11 -90 -3 -15 74 61 62 105 92 118 79 2 -2 -5 -16 -17 -30 -11 -15 -16
-27 -10 -27 14 0 72 81 68 94 -2 5 -30 16 -62 23 -87 20 -165 71 -165 108 0 3
14 11 30 16 18 7 30 18 30 28 0 16 8 31 17 31 1 0 23 -16 49 -35z m-158 -116
c20 -18 60 -43 89 -56 l53 -24 -38 -37 c-57 -57 -102 -113 -102 -127 0 -33 52
-47 132 -34 74 12 142 46 187 93 l34 35 31 -31 c42 -42 108 -70 181 -76 117
-9 135 30 55 120 l-50 56 38 15 c20 8 61 33 91 55 l54 41 46 -19 c25 -10 84
-34 129 -54 46 -20 92 -36 102 -36 10 0 23 -6 29 -14 29 -35 -54 -130 -166
-189 -132 -69 -289 -97 -543 -97 -325 1 -530 59 -650 186 -40 43 -51 60 -48
82 2 19 9 28 26 30 13 2 80 28 150 57 70 29 129 54 131 54 2 1 19 -13 39 -30z"/>
<path d="M944 1336 c-42 -42 -45 -67 -3 -32 38 32 73 33 93 4 26 -37 20 -49
-14 -30 -28 16 -31 16 -66 -3 l-37 -20 29 -6 29 -6 -35 -10 -35 -11 53 -1 c37
-1 51 -4 46 -12 -5 -8 1 -10 19 -5 22 5 26 2 33 -27 7 -29 9 -25 16 36 10 81
-7 132 -47 147 -39 15 -44 13 -81 -24z"/>
<path d="M1223 1360 c-36 -15 -48 -49 -48 -138 0 -68 2 -79 13 -65 6 9 12 25
12 36 0 19 2 19 60 -1 9 -3 6 2 -5 11 -19 16 -17 16 35 18 55 1 55 1 20 11
-33 10 -34 11 -11 17 l24 7 -26 17 c-32 21 -46 21 -75 1 -20 -14 -22 -14 -22
4 0 23 30 52 55 52 10 0 33 -11 52 -26 43 -32 43 -16 -1 30 -35 37 -46 41 -83
26z"/>
<path d="M980 1128 l-25 -11 24 -6 c14 -4 27 -13 29 -20 4 -11 -5 -13 -43 -9
l-47 6 7 -35 c7 -40 37 -110 58 -138 11 -14 9 -2 -6 42 -12 34 -18 65 -15 69
4 4 20 -7 36 -24 59 -63 175 -67 241 -6 21 19 42 34 46 34 9 0 -4 -59 -22 -93
-25 -50 -7 -39 21 12 14 27 30 69 35 93 l8 45 -51 -5 c-47 -5 -50 -4 -37 11 7
10 23 17 35 17 20 1 20 2 -4 15 -14 8 -36 14 -49 15 -20 0 -21 -2 -11 -15 10
-12 10 -16 -1 -19 -78 -22 -91 -24 -122 -14 -17 6 -38 12 -44 14 -7 2 -10 10
-7 19 7 18 -18 19 -56 3z"/>
</g>
</svg>
