<?xml version="1.0" standalone="no"?>
<!DOCTYPE svg PUBLIC "-//W3C//DTD SVG 20010904//EN"
 "http://www.w3.org/TR/2001/REC-SVG-20010904/DTD/svg10.dtd">
<svg version="1.0" xmlns="http://www.w3.org/2000/svg"
 width="490.000000pt" height="490.000000pt" viewBox="0 0 490.000000 490.000000"
 preserveAspectRatio="xMidYMid meet">
<metadata>
Created by potrace 1.16, written by Peter Selinger 2001-2019
</metadata>
<g transform="translate(0.000000,490.000000) scale(0.100000,-0.100000)"
fill="#000000" stroke="none">
<path d="M2230 4349 c-487 -49 -959 -294 -1275 -661 -261 -303 -417 -656 -466
-1051 -15 -123 -7 -441 14 -552 65 -343 199 -641 405 -896 87 -108 272 -283
380 -359 632 -447 1453 -486 2112 -102 745 434 1114 1297 916 2142 -61 261
-209 559 -386 775 -70 85 -221 232 -310 302 -390 304 -898 451 -1390 402z
m385 -19 c453 -51 851 -240 1169 -556 469 -467 663 -1135 520 -1783 -127 -572
-516 -1062 -1046 -1316 -737 -354 -1611 -207 -2189 368 -304 302 -495 683
-555 1107 -23 163 -15 472 16 625 181 905 962 1554 1880 1564 63 0 156 -4 205
-9z"/>
<path d="M2135 3299 c-140 -15 -344 -59 -485 -105 -236 -77 -428 -186 -574
-324 -119 -113 -182 -206 -227 -339 -24 -68 -24 -91 -1 -91 10 0 102 38 206
85 103 47 193 85 200 85 7 0 80 -38 162 -85 l149 -86 170 3 170 4 146 82 c81
45 151 82 157 82 5 0 89 -38 187 -85 l177 -85 165 0 164 0 140 86 c76 47 144
84 151 81 7 -3 65 -42 128 -86 l114 -81 110 0 111 0 85 85 86 86 84 -72 c73
-64 82 -69 76 -45 -44 176 -192 365 -389 497 -240 160 -581 274 -921 308 -125
13 -422 12 -541 0z m585 -24 c509 -63 943 -276 1139 -559 52 -75 90 -149 91
-174 0 -8 -29 11 -63 42 l-64 56 -88 -90 -88 -90 -104 0 -105 0 -125 88 c-69
48 -129 86 -133 85 -4 -1 -68 -41 -143 -88 l-137 -85 -164 0 -164 0 -182 88
-183 89 -161 -89 -161 -88 -160 0 -160 0 -154 89 -155 89 -75 -35 c-242 -111
-322 -145 -327 -140 -11 11 36 133 80 208 164 280 588 514 1066 588 181 28
177 28 400 29 125 1 241 -4 320 -13z"/>
<path d="M2380 3170 c-21 -39 -31 -190 -20 -284 11 -94 22 -126 44 -126 22 0
34 22 45 84 20 108 8 298 -21 334 -15 18 -36 15 -48 -8z m44 -22 c15 -49 19
-236 6 -302 -20 -106 -43 -76 -55 72 -6 70 7 221 21 243 9 16 21 10 28 -13z"/>
<path d="M2660 3165 c-30 -36 24 -266 81 -350 93 -135 95 74 4 272 -36 77 -64
103 -85 78z m71 -90 c55 -121 86 -303 48 -279 -37 22 -109 233 -109 318 0 44
2 47 17 35 9 -8 29 -41 44 -74z"/>
<path d="M3009 3164 c-31 -38 37 -289 100 -364 26 -31 30 -33 46 -20 23 19 14
108 -21 217 -43 134 -95 203 -125 167z m68 -80 c49 -93 90 -272 65 -288 -26
-16 -110 192 -120 297 -7 77 11 74 55 -9z"/>
<path d="M2103 3149 c-30 -11 -77 -77 -123 -172 -46 -94 -59 -153 -37 -174 13
-13 17 -13 39 1 52 34 125 160 154 265 15 53 16 64 3 75 -9 10 -21 11 -36 5z
m27 -34 c0 -24 -45 -140 -74 -189 -32 -55 -84 -116 -98 -116 -34 0 49 206 112
283 32 38 60 49 60 22z"/>
<path d="M1629 3099 c-80 -80 -159 -232 -142 -274 3 -8 15 -15 28 -15 56 0
205 216 205 296 0 30 -3 34 -25 34 -16 0 -40 -15 -66 -41z m71 -1 c0 -77 -164
-297 -196 -265 -20 20 82 204 142 256 41 37 54 39 54 9z"/>
<path d="M1003 2408 c-153 -60 -279 -111 -280 -112 -1 -1 10 -60 25 -130 23
-110 29 -126 44 -122 10 4 27 9 37 12 15 5 20 0 23 -18 l3 -23 1604 0 1604 0
13 45 c18 60 18 84 -1 76 -21 -8 -19 10 14 144 19 78 25 117 18 122 -6 3 -70
32 -143 64 l-133 57 -125 -102 -125 -101 -201 100 -200 100 -187 -104 -188
-104 -291 99 c-161 55 -299 99 -307 99 -9 0 -112 -43 -229 -96 -117 -53 -217
-97 -223 -97 -5 0 -114 45 -242 100 l-232 100 -278 -109z m2378 -8 c127 -64
205 -98 212 -92 7 4 48 37 92 73 44 36 96 77 117 92 l36 28 119 -52 c65 -29
122 -56 127 -60 10 -9 -34 -219 -45 -219 -4 0 -46 18 -95 39 l-88 39 -55 -44
c-31 -24 -69 -55 -86 -69 l-30 -26 194 6 193 6 -6 -25 c-3 -14 -11 -37 -16
-51 l-10 -25 -1581 2 -1582 3 -11 32 c-11 31 -11 31 -43 18 -18 -8 -33 -13
-33 -12 0 1 -11 52 -24 112 l-23 111 261 102 c144 56 268 102 277 102 9 0 117
-43 240 -97 123 -53 229 -96 234 -96 6 0 106 43 224 96 118 54 220 97 227 97
7 0 145 -45 307 -99 l294 -99 184 103 c101 57 185 103 187 104 1 1 93 -44 203
-99z m579 -217 c49 -21 90 -41 90 -45 0 -3 -69 -7 -152 -7 l-153 -1 50 45 c28
24 56 45 63 45 7 0 53 -17 102 -37z"/>
<path d="M1100 2184 c-91 -35 -181 -71 -200 -79 -32 -13 -16 -14 170 -13 113
0 284 3 380 7 l175 6 -170 73 c-93 39 -174 72 -180 72 -5 -1 -84 -30 -175 -66z
m307 -6 c68 -29 123 -55 123 -58 0 -3 -125 -7 -277 -9 -153 -1 -276 0 -273 3
7 7 282 115 295 115 5 1 65 -22 132 -51z"/>
<path d="M2045 2179 c-82 -38 -154 -71 -160 -73 -5 -2 161 -5 369 -5 209 -1
376 3 370 7 -13 13 -393 142 -412 141 -10 0 -84 -32 -167 -70z m323 2 c79 -27
146 -51 149 -55 4 -3 -117 -6 -268 -5 l-274 1 110 53 c61 30 117 54 125 54 9
1 80 -21 158 -48z"/>
<path d="M3066 2185 c-65 -35 -121 -67 -124 -70 -3 -3 111 -5 254 -5 l259 0
-130 70 c-71 38 -132 70 -135 70 -3 0 -58 -29 -124 -65z m303 -51 c2 -2 -79
-4 -180 -4 l-184 0 90 49 89 49 91 -45 c49 -25 92 -47 94 -49z"/>
<path d="M902 1908 c13 -23 51 -72 86 -109 72 -77 157 -127 272 -158 73 -21
93 -21 1220 -21 1244 0 1189 -2 1309 56 31 15 82 53 114 83 54 51 127 155 127
180 0 8 -420 11 -1576 11 l-1575 0 23 -42z m3098 14 c0 -19 -64 -106 -111
-151 -57 -55 -130 -95 -210 -116 -83 -23 -2318 -22 -2404 0 -138 35 -284 136
-343 238 l-21 37 1544 0 c850 0 1545 -4 1545 -8z"/>
</g>
</svg>
